<svg id="map" viewBox="0 0 439 439" xmlns="http://www.w3.org/2000/svg">
  <path
    d="m342.644531 120.53125c8.140625-18.546875 13.925781-35.800781 13.925781-47.386719 0-40.332031-32.8125-73.144531-73.140624-73.144531-40.332032 0-73.144532 32.8125-73.144532 73.144531 0 9.789063 4.191406 23.667969 10.382813 38.914063l-83.300781-20.789063-137.367188 19.660157v311.042968l136.535156-19.527344 146.332032 36.554688 155.988281-19.5v-311zm77.925781 8.683594v137l-128 16v-69.308594c6.039063-9.699219 25.0625-40.859375 40.875-72.796875zm-274.214843 138.570312 127.929687 31.929688v118.289062l-127.878906-31.941406zm137.074219-249.5c30.25 0 54.855468 24.609375 54.855468 54.859375 0 11.402344-8.191406 32.03125-18.921875 54.085938l-.203125.421875c-12.015625 24.707031-26.867187 50.285156-35.730468 65.078125-9.589844-16.003907-26.179688-44.640625-38.644532-71.183594l-1.503906-3.199219c-8.578125-18.59375-14.710938-35.347656-14.710938-45.203125 0-30.25 24.609376-54.859375 54.859376-54.859375zm-9.144532 194.621094v67.957031l-127.9375-31.925781-.058594-136.597656 83.78125 20.910156c16.339844 34.207031 37.742188 69.261719 44.214844 79.65625zm-146.28125-101.828125.058594 136.949219-109.777344 15.714844v-136.957032zm-109.71875 171.132813 109.785156-15.710938.046876 118.679688-109.832032 15.703124zm274.285156 137.144531v-118.710938l128-16.003906v118.714844zm0 0"/>
  <path
    d="m283.429688 109.714844c20.167968 0 36.570312-16.40625 36.570312-36.570313 0-20.167969-16.402344-36.574219-36.570312-36.574219-20.171876 0-36.574219 16.40625-36.574219 36.574219 0 20.164063 16.402343 36.570313 36.574219 36.570313zm0-54.859375c10.078124 0 18.285156 8.203125 18.285156 18.289062 0 10.082031-8.207032 18.285157-18.285156 18.285157-10.082032 0-18.285157-8.203126-18.285157-18.285157 0-10.085937 8.203125-18.289062 18.285157-18.289062zm0 0"/>
</svg>
